<svg width="86" height="45" viewBox="0 0 86 45" fill="none" xmlns="http://www.w3.org/2000/svg">
<path d="M63.3654 42.4818C64.5575 41.826 65.2953 40.7749 66.2033 39.8689C66.2186 40.6899 65.8333 41.3166 65.3034 41.8578C63.671 43.5254 61.5868 44.2725 59.3544 44.6365C58.2471 44.8171 57.1368 45.1033 55.9941 44.9622C53.5521 44.661 51.0633 44.4965 48.936 43.0674C47.7556 42.2744 46.9739 41.2814 46.7608 39.715C46.6265 38.728 46.1497 37.7168 45.9181 36.6878C45.3413 34.1244 44.7027 31.5739 44.0901 29.0207C43.5208 26.6485 43.0091 24.2533 42.3077 21.9101C42.1237 21.295 42.1983 20.5988 41.6726 20.0397C40.036 20.3324 38.373 20.4613 36.6689 20.1961C34.0757 19.7926 31.6952 18.8498 29.397 17.6431C28.7385 17.2973 28.0941 16.9251 27.4399 16.5711C26.796 16.2228 26.7293 15.7846 27.1454 15.1879C28.4481 13.3206 30.2507 12.4053 32.4706 11.9621C34.6204 11.533 36.6732 11.9297 38.7472 12.2256C39.9124 12.3919 41.0467 12.7851 42.1885 13.0985C42.4443 13.1688 42.6764 13.3118 43.0495 13.1454C42.3698 12.1557 41.4801 11.4166 40.6907 10.5941C40.0715 9.94923 39.4407 9.32256 38.9548 8.56286C38.3429 7.60613 38.3735 6.68605 38.9841 5.73361C40.0726 4.03578 41.7132 3.01879 43.4282 2.10748C44.2655 1.66263 45.1618 1.32686 46.0393 0.960865C46.3878 0.815505 46.7427 0.618473 47.159 0.790116C47.3848 1.14037 47.2519 1.45362 47.0831 1.78547C46.6655 2.60667 46.2818 3.44504 45.862 4.26499C45.4161 5.13608 45.2623 6.04865 45.334 7.02111C45.3801 7.64993 45.6578 7.94316 46.295 7.90489C48.6401 7.76436 50.9873 7.6553 53.3304 7.48812C55.6211 7.3247 57.9074 7.29681 60.1958 7.50117C61.7649 7.64117 63.3465 7.59129 64.9093 7.87271C65.4044 7.96175 65.9365 7.96962 66.3847 8.17434C67.0121 8.46077 67.2771 8.26427 67.5283 7.68659C67.8444 6.95925 67.8483 6.25211 67.6329 5.51745C67.2186 4.10568 66.4706 2.85573 65.7427 1.59416C65.5895 1.32847 65.3204 1.07923 65.4847 0.620619C67.3792 0.972844 69.0854 1.7658 70.6754 2.81103C71.6465 3.44951 72.5304 4.20867 73.261 5.12839C74.3856 6.5457 74.4124 7.70268 73.3647 9.18077C72.4561 10.4636 71.1841 11.3685 70.0309 12.3969C69.7225 12.6719 69.3838 12.9129 69.1122 13.3272C70.0747 13.0515 71.0321 12.7576 72.0001 12.5038C74.0995 11.9541 76.1753 11.592 78.4013 11.931C80.529 12.255 82.5065 12.8391 84.3713 13.8715C84.6055 14.0011 84.8254 14.1552 85.0561 14.2897C85.723 14.6762 85.8231 15.076 85.2456 15.6884C83.7759 17.2469 81.9433 18.2222 79.9998 18.9905C77.5181 19.9709 74.9417 20.5103 72.2494 20.352C71.8042 20.3259 71.3663 20.3098 70.9236 20.209C70.0924 20.02 69.7763 20.3098 69.6433 21.1235C69.2658 23.4302 68.8446 25.7298 68.455 28.0347C68.1106 30.071 67.802 32.1133 67.4469 34.1478C67.2036 35.5423 66.8508 36.9161 66.7105 38.3313C66.6778 38.6621 66.5226 39.0173 66.2192 39.2267C65.996 39.2435 65.9254 39.0851 65.9099 38.9508C65.6422 36.6524 64.033 35.4486 62.1296 34.7169C58.1655 33.1936 54.1706 33.1865 50.2857 35.0751C48.4472 35.969 47.25 37.4319 47.18 39.5183C47.1373 40.7953 47.9827 41.727 49.0862 42.3145C51.0869 43.3797 53.2639 43.8058 55.5083 43.8739C57.7096 43.9408 59.9113 43.9301 62.0071 43.0953C62.4482 42.9195 62.8757 42.7098 63.3654 42.4818ZM70.5006 18.4182C71.4748 18.8804 72.5138 19.1827 73.5792 19.1391C76.2147 19.0316 78.7303 18.3953 81.0672 17.1386C82.0988 16.5829 83.1465 16.0388 83.9672 15.0808C83.767 14.963 83.6454 14.882 83.5166 14.8178C81.5177 13.8244 79.3883 13.6324 77.1945 13.71C75.4494 13.7719 73.8528 14.2745 72.4328 15.2337C71.3643 15.9551 70.5201 16.9119 70.5006 18.4182ZM41.5457 17.8128C40.1625 13.9716 33.6337 12.5684 30.3769 14.5471C29.7445 14.9313 28.9982 15.2135 28.5791 15.9827C30.752 17.2759 33.0209 18.1168 35.4136 18.6192C37.2582 19.0064 39.1157 19.0971 40.9691 18.6283C41.3395 18.5346 41.6775 18.4336 41.5457 17.8128ZM64.6249 19.8647C63.8119 20.6353 63.4212 21.6479 63.2449 22.6946C62.7888 25.403 63.1376 28.0685 63.9903 30.6585C64.2687 31.5044 64.4956 32.4121 65.2338 33.1856C66.2646 30.4854 67.2719 27.8881 68.1512 25.1377C67.8861 25.1609 67.7421 25.1579 67.6052 25.1879C66.2943 25.4752 65.0681 25.3047 63.934 24.5525C63.1747 24.0488 63.1314 23.8566 63.7488 23.1772C64.7539 22.071 66.0245 21.6138 67.504 21.6685C67.8852 21.6825 68.4173 21.7424 68.531 21.3284C68.7071 20.6871 69.151 20.0914 68.9882 19.3735C68.9317 19.1252 68.7007 19.1073 68.4972 19.0581C67.1287 18.7264 65.8423 18.816 64.6249 19.8647ZM45.8026 25.3138C45.4885 25.3449 45.1573 25.1725 44.7536 25.4534C45.6421 27.9664 46.538 30.501 47.4341 33.0357C49.0617 30.3231 49.7559 27.4541 49.5026 24.2755C48.3106 24.8323 47.2385 25.4516 45.8026 25.3138ZM43.6054 21.2814C43.7565 21.4615 43.9721 21.4422 44.1761 21.4785C46.0828 21.8173 48.1051 21.8718 49.4159 23.7075C49.7645 22.8738 49.298 22.2594 49.15 21.6197C48.7613 19.9406 47.3603 18.8945 45.6494 18.8768C43.5117 18.8546 43.4003 18.9746 43.6054 21.2814Z" fill="black"/>
<path d="M6.01257 25.0448C4.08874 24.038 2.08785 23.7388 0.0318895 23.9604C-0.116331 23.3555 0.286497 23.205 0.534127 22.994C2.72919 21.1243 5.36569 20.2979 8.12395 19.6688C10.0809 19.2223 12.0606 19.1937 14.0322 19.0269C16.1702 18.8459 18.3068 19.1095 20.434 19.3222C23.0329 19.5822 25.5829 20.1089 28.0529 20.9711C30.4786 21.8179 32.8182 22.8431 34.7429 24.6067C36.5049 26.2214 37.6311 28.1291 37.4307 30.6375C37.3157 32.0739 36.6948 33.316 35.981 34.5075C35.189 35.83 34.2338 37.036 32.8507 38.1134C31.2315 31.3535 26.2095 28.3031 20.3186 26.2023C21.1005 26.6834 21.8908 27.1515 22.6626 27.6484C25.3642 29.3871 27.7311 31.49 29.6344 34.0943C30.4854 35.2588 31.0913 36.5413 31.5231 37.9126C31.7032 38.4846 31.6002 38.9221 31.1006 39.3235C28.6825 41.267 25.9685 41.5187 23.098 40.7134C19.0689 39.5831 16.5257 36.5883 14.1139 33.4376C12.5958 31.4542 11.1359 29.4233 9.38552 27.6262C8.40001 26.6146 7.3015 25.7628 6.01257 25.0448Z" fill="#75B619"/>
<path d="M28.4316 8.79997C25.5708 11.2672 23.4572 14.1454 22.5566 17.815C22.2775 18.9528 22.0682 18.9981 20.9307 18.7603C19.3002 18.4193 17.6332 18.3607 15.9672 18.3644C14.8706 18.3669 14.7816 18.3079 15.0635 17.2597C15.5845 15.3233 16.4656 13.5295 17.6333 11.9099C20.5427 7.87453 24.4157 5.0544 28.9262 3.01882C31.4307 1.88848 34.032 1.09963 36.7021 0.546263C38.8697 0.0969509 41.0747 -0.140489 43.3025 0.0885473C43.3286 0.479929 43.0413 0.526773 42.848 0.612953C41.2603 1.3208 39.8185 2.26359 38.4418 3.31311C37.4697 4.05422 36.2623 4.24785 35.1724 4.7129C32.7458 5.74812 30.5099 7.07764 28.4316 8.79997Z" fill="#75B619"/>
<path d="M31.0578 43.3094C29.9897 42.8699 28.8397 42.7632 27.8903 41.8545C29.7599 41.3439 31.3185 40.5853 32.6816 39.4533C32.796 39.3582 32.9534 39.2887 33.0219 39.1682C33.7054 37.9656 34.633 38.2127 35.6891 38.6075C37.5201 39.2921 39.4186 39.7031 41.3787 39.8866C42.2328 39.9665 43.0814 40.0943 43.9424 40.0857C44.3043 40.0822 44.5836 40.2248 44.7365 40.5567C45.3789 41.9509 46.2957 43.0823 47.7234 43.7417C47.8822 43.815 48.0136 43.9532 48.0163 44.2111C47.5153 44.6216 46.1212 44.7879 45.5612 44.802C44.0104 44.8411 43.2063 45.0607 41.6499 44.9654C38.091 44.7474 34.5647 44.3237 31.0578 43.3094Z" fill="#75B619"/>
<path d="M60.797 37.9682C60.7324 37.0803 61.2232 36.7195 61.9155 36.5307C62.0575 36.4919 62.2068 36.4785 62.3536 36.4597C62.8683 36.3937 63.4598 35.9062 63.8615 36.5707C64.1245 37.0058 63.1523 38.6196 62.5769 38.692C61.9098 38.776 61.109 39.0281 60.797 37.9682Z" fill="black"/>
<path d="M51.5085 36.7152C51.8601 36.901 52.1718 37.044 52.31 37.3603C52.4965 37.7868 52.5716 38.235 52.1807 38.5942C51.8394 38.9082 50.5076 38.8103 50.1716 38.4483C49.7413 37.9843 49.5161 37.3911 49.2927 36.8171C49.1337 36.4091 49.4707 36.2886 49.8006 36.3348C50.3551 36.4124 50.9211 36.4537 51.5085 36.7152Z" fill="black"/>
</svg>
